<svg width="461" height="350" viewBox="0 0 461 350" fill="none" xmlns="http://www.w3.org/2000/svg">
<g clip-path="url(#clip0_66_595)">
<path d="M426.533 318.131C411.428 329.624 393.026 341.267 374.934 346.756C369.719 348.386 364.337 349.426 358.889 349.857C353.796 350.267 348.671 349.869 343.702 348.68C330.645 345.435 318.534 339.752 306.815 333.112C302.987 330.94 299.202 328.668 295.44 326.346C289.299 322.553 283.218 318.628 277.121 314.797C276.208 314.217 275.301 313.647 274.388 313.083H274.382C272.911 312.16 271.435 311.25 269.956 310.353C269.696 310.192 269.436 310.037 269.17 309.877C266.376 308.185 263.534 306.533 260.644 304.918C260.29 304.725 259.936 304.526 259.582 304.332C253.991 301.233 248.244 298.423 242.364 295.913C238.502 294.287 234.591 292.822 230.64 291.573H230.635C229.124 291.098 227.608 290.65 226.087 290.241C221.525 288.99 216.875 288.081 212.178 287.521C205.704 286.738 199.157 286.79 192.697 287.676C192.26 287.736 191.828 287.797 191.391 287.869C173.908 290.666 157.951 300.098 140.39 302.32C139.821 302.392 139.256 302.458 138.686 302.508C138.443 302.53 138.199 302.558 137.956 302.574C132.853 303.011 127.717 302.885 122.641 302.198C108.461 300.33 94.6513 294.531 82.2192 287.222C53.1557 270.134 29.5863 243.87 15.2565 213.453C12.7958 208.24 10.611 202.902 8.71128 197.46C3.39981 182.369 0.474764 166.543 0.0414589 150.553C-1.303 95.0709 30.2502 39.4067 79.7903 14.314C129.336 -10.7788 194.512 -2.48091 234.469 36.0677C258.708 59.4522 272.734 91.1403 290.975 119.45C309.216 147.755 335.143 174.794 368.583 178.918C385.618 181.019 403.444 176.955 419.772 182.241C428.812 185.171 436.525 190.776 442.738 197.919C446.915 202.766 450.411 208.159 453.128 213.951C455.12 218.137 456.736 222.492 457.959 226.964C458.185 227.788 458.396 228.612 458.6 229.435C466.733 262.627 453.737 297.422 426.533 318.131Z" fill="#F2F2F2"/>
<path d="M154.455 258.044H102.447C94.655 258.044 88.3384 264.355 88.3384 272.141V272.141C88.3384 279.927 94.655 286.238 102.447 286.238H154.455C162.247 286.238 168.563 279.927 168.563 272.141C168.563 264.355 162.247 258.044 154.455 258.044Z" fill="#3F3D56"/>
<path d="M138.686 279.051V302.508C133.344 303.024 127.96 302.92 122.641 302.198V279.051H138.686Z" fill="#3F3D56"/>
<path d="M192.697 287.675C192.26 287.736 191.828 287.797 191.391 287.869C173.908 290.666 157.951 300.097 140.39 302.32C139.82 302.392 139.256 302.458 138.686 302.508C138.443 302.53 138.199 302.558 137.956 302.574C133.668 298.378 129.38 293.911 125.352 289.284C123.167 286.78 121.053 284.226 119.067 281.639C113.911 274.96 109.54 268.094 106.652 261.35C106.945 258.116 104.931 250.636 103.968 244.909L103.963 244.903C103.553 242.498 103.332 240.409 103.537 239.065C104.71 231.315 111.045 232.205 112.992 224.609C114.749 223.152 116.619 221.838 118.586 220.678C118.912 220.485 119.244 220.291 119.587 220.098L140.722 205.503L148.8 213.42L161.094 225.471L174.417 238.524L163.108 249.94C163.108 249.94 172.558 260.825 183.606 275.336C186.572 279.234 189.654 283.397 192.697 287.675Z" fill="#2F2E41"/>
<path d="M374.934 279.051V346.756C369.719 348.386 364.337 349.426 358.889 349.857V279.051H374.934Z" fill="#3F3D56"/>
<path d="M395.682 273.523H343.674C335.882 273.523 329.566 279.835 329.566 287.62V287.62C329.566 295.406 335.882 301.717 343.674 301.717H395.682C403.474 301.717 409.79 295.406 409.79 287.62C409.79 279.835 403.474 273.523 395.682 273.523Z" fill="#3F3D56"/>
<path d="M269.17 309.877C266.376 308.185 263.534 306.532 260.644 304.918C260.29 304.725 259.936 304.526 259.582 304.332L261.485 303.519L266.62 301.314L266.669 301.292L266.725 301.48L269.17 309.877Z" fill="#FFB6B6"/>
<path d="M277.121 314.797C276.208 314.217 275.301 313.647 274.388 313.083H274.382C272.911 312.16 271.435 311.25 269.956 310.352C269.696 310.192 269.436 310.037 269.17 309.877C266.376 308.185 263.534 306.532 260.644 304.918C260.29 304.725 259.936 304.526 259.582 304.332C253.991 301.233 248.244 298.423 242.364 295.913C238.502 294.287 234.591 292.822 230.64 291.573H230.635L227.531 286.382L213.561 263.003L210.49 257.867C210.49 257.867 200.017 260.963 185.194 263.932C179.8 265.015 173.836 266.077 167.578 266.972C160.889 267.923 153.874 268.68 146.902 269.045C143.577 269.222 140.263 269.311 136.999 269.283C128.561 269.228 120.456 268.437 113.357 266.558C110.989 264.335 103.852 261.311 98.7399 258.542H98.7344C96.5877 257.381 94.8061 256.269 93.8711 255.28C88.4822 249.586 93.0854 245.147 88.2941 238.933C88.2296 236.653 88.3462 234.372 88.6427 232.111C88.6925 231.735 88.7423 231.354 88.8031 230.967L90.3135 205.338L101.534 203.856L118.608 201.6L137.104 199.157L139.14 215.089C139.14 215.089 153.542 214.36 171.789 214.603C201.096 215.001 240.312 217.92 245.623 230.447C246.121 231.624 246.619 232.813 247.117 234.002C248.301 236.843 249.474 239.699 250.636 242.57C254.846 252.964 258.863 263.456 262.531 273.374C264.811 279.543 266.957 285.492 268.932 291.059C270.52 295.537 271.992 299.771 273.337 303.669C274.565 307.229 275.677 310.507 276.667 313.448C276.822 313.907 276.972 314.36 277.121 314.797Z" fill="#2F2E41"/>
<path d="M173.904 159.515L138.464 129.441L161.522 106.124L177.608 132.451L237.237 144.264C239.03 142.915 241.177 142.117 243.416 141.967C245.655 141.817 247.889 142.321 249.846 143.418C251.804 144.514 253.399 146.156 254.439 148.143C255.478 150.131 255.916 152.377 255.7 154.609C255.484 156.84 254.623 158.961 253.221 160.712C251.819 162.463 249.938 163.769 247.807 164.47C245.675 165.171 243.386 165.238 241.217 164.661C239.049 164.085 237.095 162.89 235.594 161.223L173.904 159.515Z" fill="#A0616A"/>
<path d="M107.143 89.9155C103.048 103.229 142.055 134.982 142.055 134.982C142.488 131.786 164.604 159.347 166.109 156.851C170.385 149.757 175.09 132.221 180.027 129.98C182.85 128.698 166.654 110.884 166.654 110.884C166.654 110.884 158.392 99.962 147.484 86.1201C144.473 82.1497 140.505 79.005 135.95 76.9789C131.395 74.9528 126.401 74.1111 121.434 74.5322C121.434 74.5322 111.239 76.602 107.143 89.9155Z" fill="#3F3D56"/>
<path d="M124.39 60.4422C137.628 60.4422 148.36 49.7191 148.36 36.4916C148.36 23.264 137.628 12.5409 124.39 12.5409C111.152 12.5409 100.42 23.264 100.42 36.4916C100.42 49.7191 111.152 60.4422 124.39 60.4422Z" fill="#A0616A"/>
<path d="M136.375 76.272C141.539 79.3395 144.628 84.9757 146.401 90.7111C149.684 101.329 151.661 112.308 152.286 123.404L154.159 156.623L177.356 227.355C157.252 244.352 81.6845 231.218 81.6845 231.218C81.6845 231.218 79.3648 230.446 81.6845 228.128C84.0041 225.81 86.2624 227.863 83.9427 225.546C81.6231 223.228 83.2221 225.81 83.9954 223.492C84.7686 221.174 83.9954 222.72 83.2222 221.947C82.4489 221.174 89.2081 214.221 89.2081 214.221L83.0223 173.62L75.29 91.7239C84.5688 80.1349 103.23 73.3033 103.23 73.3033L108.051 64.6312L132.16 66.5583L136.375 76.272Z" fill="#3F3D56"/>
<path d="M144.149 23.767C146.012 25.1553 147.393 27.0926 148.096 29.306C148.366 25.6889 148.383 22.0573 148.147 18.4377C147.865 15.8943 146.072 15.3222 143.997 14.6593C142.123 14.0603 140.004 13.3838 139.434 10.9146C131.899 3.59056 118.782 3.95988 109.806 6.51464C104.866 7.92047 102.024 9.72669 101.77 10.7848L101.717 11.0026L101.516 11.1028C97.709 13.005 96.9679 19.0117 97.0169 23.7157C97.1096 32.5782 100.172 42.6439 101.897 43.4616C101.989 43.5049 102.012 43.4879 102.051 43.455C104.649 41.3806 107.819 43.6126 109.211 44.826C110.033 39.3178 112.678 34.2435 116.724 30.4135C120.771 26.5836 125.985 24.219 131.534 23.6974C133.346 23.5223 135.144 23.2211 136.914 22.7959C137.812 22.5638 138.735 22.4428 139.662 22.4355C141.259 22.4113 142.825 22.8759 144.149 23.767Z" fill="#2F2E41"/>
<path d="M113.946 195.6L106.614 191.847C106.221 191.568 105.942 191.156 105.827 190.688C105.713 190.22 105.771 189.726 105.991 189.297C106.211 188.868 106.578 188.532 107.025 188.351C107.472 188.17 107.97 188.156 108.426 188.311L115.759 192.063C116.152 192.343 116.431 192.754 116.545 193.223C116.659 193.691 116.601 194.185 116.381 194.614C116.161 195.043 115.794 195.378 115.347 195.559C114.9 195.74 114.403 195.755 113.946 195.6L113.946 195.6Z" fill="#F2A900"/>
<path d="M89.2685 185.547L77.2065 140.678L109.44 134.581L107.706 165.379L150.058 208.952C152.3 208.86 154.52 209.422 156.448 210.57C158.376 211.717 159.928 213.401 160.915 215.414C161.902 217.428 162.281 219.685 162.007 221.91C161.732 224.136 160.815 226.233 159.368 227.947C157.921 229.66 156.007 230.917 153.857 231.562C151.708 232.207 149.418 232.213 147.265 231.58C145.113 230.947 143.191 229.702 141.734 227.997C140.277 226.291 139.349 224.199 139.062 221.975L89.2685 185.547Z" fill="#A0616A"/>
<path d="M73.9082 90.3712C62.9671 99.0016 77.01 147.276 77.01 147.276C79.1842 144.892 81.7107 180.128 84.3682 178.928C91.9212 175.518 105.765 163.76 111.102 164.718C114.154 165.266 110.956 141.412 110.956 141.412C110.956 141.412 110.368 127.734 109.263 110.15C109.042 105.173 107.566 100.333 104.969 96.0799C102.373 91.8267 98.7427 88.299 94.4151 85.8251C94.4151 85.8251 84.8492 81.7408 73.9082 90.3712Z" fill="#3F3D56"/>
<path d="M453.128 213.951L15.2564 213.453C12.7957 208.24 10.6109 202.902 8.71118 197.46L442.738 197.919C446.915 202.765 450.411 208.159 453.128 213.951Z" fill="#3F3D56"/>
<path d="M313.665 329.945C311.402 331.039 309.119 332.095 306.815 333.112C302.987 330.94 299.202 328.668 295.44 326.346L309.393 320.22L313.665 329.945Z" fill="#FFB6B6"/>
<path d="M415.401 253.765C413.132 256.806 410.792 259.785 408.38 262.704C406.155 265.397 403.872 268.037 401.53 270.626C400.562 271.699 399.583 272.766 398.581 273.822C396.739 275.795 394.856 277.736 392.932 279.643C389.469 280.732 382.453 282.65 374.934 284.441C369.462 285.741 363.725 286.973 358.889 287.758C356.182 288.244 353.444 288.536 350.695 288.632C347.431 288.66 344.117 288.571 340.792 288.394C337.04 288.195 333.284 287.886 329.571 287.488C319.917 286.476 310.566 284.9 302.5 283.281C299.545 282.695 296.768 282.097 294.211 281.517C289.37 280.428 285.32 279.411 282.388 278.637C279.085 277.774 277.204 277.216 277.204 277.216L268.932 291.059L264.639 298.24L261.485 303.52L260.644 304.918C260.29 304.725 259.936 304.526 259.582 304.332C253.991 301.233 248.244 298.423 242.364 295.913C238.502 294.287 234.591 292.822 230.64 291.573H230.635C229.124 291.097 227.608 290.65 226.087 290.241C226.563 288.964 227.044 287.677 227.531 286.382C228.438 283.966 229.364 281.528 230.308 279.068C232.35 273.739 234.464 268.332 236.638 262.953C238.419 258.536 240.234 254.136 242.071 249.796C242.918 247.795 244.638 246.037 247.045 244.494C248.195 243.769 249.395 243.127 250.636 242.57C257.524 239.436 267.671 237.396 278.853 236.086C279.777 235.981 280.706 235.876 281.641 235.776C290.897 234.803 300.718 234.3 309.902 234.068C314.5 233.952 318.937 233.908 323.065 233.902C324.398 233.902 325.695 233.906 326.954 233.913H326.96C330.363 233.93 333.494 233.979 336.249 234.035C336.786 234.046 337.306 234.062 337.815 234.073H337.821C338.164 234.079 338.501 234.09 338.833 234.096C344.858 234.25 348.554 234.438 348.554 234.438L349.987 223.205L350.28 220.938L350.557 218.782V218.777L350.59 218.506L350.817 218.5L354.801 218.423L388.285 217.771L406.576 217.411L403.677 229.828L398.891 250.315C399.378 253.555 415.567 251.018 415.401 253.765Z" fill="#2F2E41"/>
<path d="M317.792 327.899C316.425 328.596 315.048 329.281 313.665 329.945C311.402 331.039 309.119 332.095 306.815 333.112C302.986 330.94 299.202 328.668 295.44 326.346C289.298 322.553 283.218 318.628 277.121 314.797C276.208 314.217 275.301 313.647 274.388 313.083H274.382C271.87 309.357 269.309 305.477 266.725 301.48C266.686 301.424 266.653 301.369 266.62 301.314C265.956 300.297 265.296 299.272 264.639 298.24C260.506 291.772 256.351 285.027 252.318 278.139L262.531 273.374L281.519 264.518L284.795 262.992L294.211 281.517L302.61 298.041L304.48 301.717L317.792 327.899Z" fill="#2F2E41"/>
<path d="M320.654 238.959L369.066 192.31L382.484 154.347L362.692 145.748C352.525 155.478 341.536 185.786 341.536 185.786L308.222 228.135C307.963 228.224 307.704 228.318 307.448 228.431C305.947 229.092 304.643 230.129 303.661 231.441C302.678 232.753 302.051 234.296 301.84 235.921C301.629 237.546 301.841 239.198 302.456 240.717C303.07 242.236 304.067 243.571 305.349 244.593C306.63 245.615 308.154 246.289 309.773 246.551C311.392 246.812 313.051 246.652 314.59 246.085C316.129 245.519 317.495 244.565 318.558 243.317C319.62 242.069 320.342 240.568 320.654 238.959Z" fill="#FFB8B8"/>
<path d="M357.122 149.986L382.227 157.95L382.322 157.934C391.666 156.37 399.42 141.121 404.278 128.605C405.877 124.476 405.847 119.895 404.195 115.787C402.543 111.68 399.391 108.353 395.378 106.478C392.408 105.115 389.115 104.609 385.873 105.018C382.63 105.427 379.566 106.734 377.028 108.791L364.137 119.317L357.122 149.986Z" fill="#F2A900"/>
<path d="M415.3 254.325L415.447 254.13C423.279 243.75 412.566 218.045 410.947 214.317L418.23 212.162L416.96 198.306L416.349 192.128L422.012 186.754L422.031 186.617L425.925 158.925L431.021 140.596C432.941 133.667 432.982 126.353 431.138 119.403C429.295 112.453 425.633 106.119 420.53 101.05L410.113 90.7161L397.634 71.1978L376.709 70.658L369.185 84.0137C362.188 85.4406 355.913 89.2751 351.454 94.8492C346.995 100.423 344.635 107.384 344.784 114.518L345.492 150.073L337.984 194.126L337.773 202.128L330.404 209.899L331.767 217.754L326.254 219.948L323.557 231.11C322.527 232.398 315.725 240.989 315.663 243.384C315.654 243.744 315.91 244.098 316.47 244.499C320.873 247.646 345.483 254.467 356.558 250.366C368.356 246.002 414.594 254.198 415.06 254.282L415.3 254.325Z" fill="#F2A900"/>
<path d="M385.344 64.6746C400.654 64.6746 413.065 52.2735 413.065 36.976C413.065 21.6785 400.654 9.2774 385.344 9.2774C370.034 9.2774 357.623 21.6785 357.623 36.976C357.623 52.2735 370.034 64.6746 385.344 64.6746Z" fill="#FFB8B8"/>
<path d="M381.962 65.0452C386.255 65.1121 390.546 64.8125 394.787 64.1497C398.992 63.2954 408.398 56.4083 411.02 52.264C412.968 49.1848 414.213 44.3765 414.916 40.8852C415.861 36.2651 415.825 31.4981 414.81 26.8929C413.794 22.2876 411.822 17.9468 409.021 14.1515C407.945 12.564 406.459 11.2968 404.721 10.4839C404.566 10.4237 404.408 10.3703 404.248 10.3247C401.715 9.65887 399.439 8.25181 397.713 6.2842C397.378 5.88623 397.015 5.51286 396.626 5.16701C394.675 3.52146 392.361 2.36073 389.875 1.77969C385.861 0.706424 380.053 1.77178 372.612 4.94923C368.873 6.54564 364.784 5.96789 361.639 5.28615C361.462 5.2521 361.28 5.2648 361.11 5.32299C360.94 5.38119 360.788 5.48284 360.67 5.61785C359.332 6.87316 357.568 7.57582 355.732 7.58462C354.608 7.63395 353.428 9.18935 352.003 11.2176C351.679 11.6781 351.302 12.2154 351.029 12.5423L350.993 11.9143L350.357 12.6148C349.357 13.7158 348.653 15.0516 348.309 16.4979C347.965 17.9442 347.993 19.4539 348.39 20.8864C348.788 22.3189 349.541 23.6277 350.581 24.6909C351.621 25.754 352.913 26.537 354.337 26.9668C355.468 27.2675 356.627 27.4519 357.795 27.5174C358.503 27.581 359.235 27.6469 359.937 27.7685C362.188 28.2292 364.282 29.2654 366.013 30.776C367.744 32.2866 369.054 34.2198 369.814 36.3871C369.994 36.8881 370.286 37.3411 370.669 37.7111C371.052 38.0812 371.515 38.3584 372.022 38.5213C372.529 38.6843 373.067 38.7287 373.593 38.651C374.12 38.5733 374.622 38.3757 375.061 38.0734C375.792 37.5048 376.649 37.1212 377.56 36.9554C378.472 36.7896 379.41 36.8465 380.294 37.1212C381.058 37.5459 381.653 38.2203 381.979 39.0312C382.375 39.9347 383.032 40.6999 383.865 41.2291C386.714 42.6969 386.91 49.1992 385.887 54.6197C384.901 59.8446 382.951 63.6244 381.145 63.8112C379.756 63.9549 379.597 64.0535 379.496 64.2991L379.406 64.519L379.562 64.7246C380.33 65.0027 381.148 65.1121 381.962 65.0452Z" fill="#2F2E41"/>
<path d="M364.006 141.612L353.318 120.32C337.803 121.379 307.012 139.302 307.012 139.302L248.753 151.644C247.027 150.982 245.157 150.785 243.33 151.073C241.504 151.362 239.786 152.127 238.35 153.29C236.913 154.453 235.809 155.974 235.147 157.699C234.486 159.424 234.291 161.293 234.582 163.118C234.874 164.942 235.641 166.658 236.807 168.092C237.972 169.526 239.496 170.627 241.223 171.286C242.951 171.945 244.821 172.137 246.647 171.844C248.472 171.551 250.188 170.782 251.622 169.616L325.731 164.308L364.006 141.612Z" fill="#FFB8B8"/>
<path d="M359.695 145.108L387.61 124.38L392.527 106.675C393.48 103.195 393.44 99.5192 392.411 96.0615C391.382 92.6037 389.406 89.5024 386.706 87.1079C383.024 83.8867 378.255 82.1827 373.364 82.3404C368.473 82.4981 363.824 84.5057 360.357 87.9574C349.852 98.4341 337.871 113.05 340.445 123.185L340.471 123.288L359.695 145.108Z" fill="#F2A900"/>
<path d="M325.139 200.55H250.448V210.501H325.139V200.55Z" fill="white"/>
<path d="M134.26 200.55H59.5681V210.501H134.26V200.55Z" fill="white"/>
<path d="M142.982 152.696V200.076C142.982 200.68 143.223 201.259 143.65 201.686C144.077 202.112 144.657 202.353 145.261 202.353H215.529C216.133 202.353 216.713 202.112 217.14 201.686C217.567 201.259 217.808 200.68 217.808 200.076V152.696C217.807 152.093 217.566 151.515 217.139 151.089C216.712 150.662 216.133 150.423 215.529 150.422H145.261C144.657 150.423 144.078 150.662 143.651 151.089C143.224 151.515 142.983 152.093 142.982 152.696Z" fill="#3F3D56"/>
<path d="M144.63 153.286V199.491C144.631 199.814 144.759 200.123 144.988 200.351C145.216 200.579 145.525 200.708 145.848 200.708H214.944C215.267 200.708 215.577 200.579 215.805 200.351C216.033 200.123 216.162 199.814 216.162 199.491V153.286C216.162 152.963 216.034 152.653 215.806 152.425C215.577 152.196 215.267 152.067 214.944 152.066H145.848C145.525 152.067 145.215 152.196 144.987 152.425C144.759 152.653 144.63 152.963 144.63 153.286Z" fill="#F2A900"/>
<path d="M141.512 209.316C141.641 209.477 141.805 209.607 141.991 209.696C142.177 209.785 142.381 209.831 142.587 209.83H217.828C218.034 209.83 218.237 209.784 218.423 209.695C218.609 209.607 218.772 209.478 218.902 209.318C219.031 209.159 219.124 208.972 219.172 208.772C219.221 208.572 219.224 208.364 219.182 208.163L218.014 202.62C217.965 202.394 217.861 202.183 217.71 202.008C217.56 201.832 217.368 201.697 217.152 201.615C216.995 201.553 216.828 201.522 216.66 201.522H143.751C143.583 201.522 143.416 201.553 143.26 201.615C143.043 201.697 142.851 201.832 142.701 202.008C142.55 202.183 142.446 202.394 142.397 202.62L141.23 208.163C141.188 208.364 141.192 208.572 141.241 208.771C141.29 208.971 141.382 209.157 141.512 209.316Z" fill="#2F2E41"/>
<path d="M214.079 203.91H215.856C216.005 203.91 216.126 203.789 216.126 203.64V202.79C216.126 202.641 216.005 202.52 215.856 202.52H214.079C213.93 202.52 213.809 202.641 213.809 202.79V203.64C213.809 203.789 213.93 203.91 214.079 203.91Z" fill="#3F3D56"/>
<path d="M209.444 203.91H211.221C211.37 203.91 211.491 203.789 211.491 203.64V202.79C211.491 202.641 211.37 202.52 211.221 202.52H209.444C209.295 202.52 209.174 202.641 209.174 202.79V203.64C209.174 203.789 209.295 203.91 209.444 203.91Z" fill="#3F3D56"/>
<path d="M204.809 203.91H206.586C206.736 203.91 206.856 203.789 206.856 203.64V202.79C206.856 202.641 206.736 202.52 206.586 202.52H204.809C204.66 202.52 204.539 202.641 204.539 202.79V203.64C204.539 203.789 204.66 203.91 204.809 203.91Z" fill="#3F3D56"/>
<path d="M200.174 203.91H201.952C202.101 203.91 202.222 203.789 202.222 203.64V202.79C202.222 202.641 202.101 202.52 201.952 202.52H200.174C200.025 202.52 199.904 202.641 199.904 202.79V203.64C199.904 203.789 200.025 203.91 200.174 203.91Z" fill="#3F3D56"/>
<path d="M195.54 203.91H197.317C197.466 203.91 197.587 203.789 197.587 203.64V202.79C197.587 202.641 197.466 202.52 197.317 202.52H195.54C195.39 202.52 195.27 202.641 195.27 202.79V203.64C195.27 203.789 195.39 203.91 195.54 203.91Z" fill="#3F3D56"/>
<path d="M190.905 203.91H192.682C192.831 203.91 192.952 203.789 192.952 203.64V202.79C192.952 202.641 192.831 202.52 192.682 202.52H190.905C190.756 202.52 190.635 202.641 190.635 202.79V203.64C190.635 203.789 190.756 203.91 190.905 203.91Z" fill="#3F3D56"/>
<path d="M186.27 203.91H188.047C188.196 203.91 188.317 203.789 188.317 203.64V202.79C188.317 202.641 188.196 202.52 188.047 202.52H186.27C186.121 202.52 186 202.641 186 202.79V203.64C186 203.789 186.121 203.91 186.27 203.91Z" fill="#3F3D56"/>
<path d="M181.635 203.91H183.413C183.562 203.91 183.683 203.789 183.683 203.64V202.79C183.683 202.641 183.562 202.52 183.413 202.52H181.635C181.486 202.52 181.365 202.641 181.365 202.79V203.64C181.365 203.789 181.486 203.91 181.635 203.91Z" fill="#3F3D56"/>
<path d="M177.001 203.91H178.778C178.927 203.91 179.048 203.789 179.048 203.64V202.79C179.048 202.641 178.927 202.52 178.778 202.52H177.001C176.851 202.52 176.73 202.641 176.73 202.79V203.64C176.73 203.789 176.851 203.91 177.001 203.91Z" fill="#3F3D56"/>
<path d="M172.366 203.91H174.143C174.292 203.91 174.413 203.789 174.413 203.64V202.79C174.413 202.641 174.292 202.52 174.143 202.52H172.366C172.217 202.52 172.096 202.641 172.096 202.79V203.64C172.096 203.789 172.217 203.91 172.366 203.91Z" fill="#3F3D56"/>
<path d="M167.731 203.91H169.508C169.657 203.91 169.778 203.789 169.778 203.64V202.79C169.778 202.641 169.657 202.52 169.508 202.52H167.731C167.582 202.52 167.461 202.641 167.461 202.79V203.64C167.461 203.789 167.582 203.91 167.731 203.91Z" fill="#3F3D56"/>
<path d="M163.096 203.91H164.873C165.023 203.91 165.144 203.789 165.144 203.64V202.79C165.144 202.641 165.023 202.52 164.873 202.52H163.096C162.947 202.52 162.826 202.641 162.826 202.79V203.64C162.826 203.789 162.947 203.91 163.096 203.91Z" fill="#3F3D56"/>
<path d="M158.462 203.91H160.239C160.388 203.91 160.509 203.789 160.509 203.64V202.79C160.509 202.641 160.388 202.52 160.239 202.52H158.462C158.312 202.52 158.191 202.641 158.191 202.79V203.64C158.191 203.789 158.312 203.91 158.462 203.91Z" fill="#3F3D56"/>
<path d="M153.827 203.91H155.604C155.753 203.91 155.874 203.789 155.874 203.64V202.79C155.874 202.641 155.753 202.52 155.604 202.52H153.827C153.678 202.52 153.557 202.641 153.557 202.79V203.64C153.557 203.789 153.678 203.91 153.827 203.91Z" fill="#3F3D56"/>
<path d="M149.192 203.91H150.969C151.118 203.91 151.239 203.789 151.239 203.64V202.79C151.239 202.641 151.118 202.52 150.969 202.52H149.192C149.043 202.52 148.922 202.641 148.922 202.79V203.64C148.922 203.789 149.043 203.91 149.192 203.91Z" fill="#3F3D56"/>
<path d="M144.557 203.91H146.334C146.484 203.91 146.604 203.789 146.604 203.64V202.79C146.604 202.641 146.484 202.52 146.334 202.52H144.557C144.408 202.52 144.287 202.641 144.287 202.79V203.64C144.287 203.789 144.408 203.91 144.557 203.91Z" fill="#3F3D56"/>
<path d="M214.133 206.225H215.911C216.06 206.225 216.181 206.104 216.181 205.955V205.106C216.181 204.957 216.06 204.836 215.911 204.836H214.133C213.984 204.836 213.863 204.957 213.863 205.106V205.955C213.863 206.104 213.984 206.225 214.133 206.225Z" fill="#3F3D56"/>
<path d="M209.499 206.225H211.276C211.425 206.225 211.546 206.104 211.546 205.955V205.106C211.546 204.957 211.425 204.836 211.276 204.836H209.499C209.349 204.836 209.229 204.957 209.229 205.106V205.955C209.229 206.104 209.349 206.225 209.499 206.225Z" fill="#3F3D56"/>
<path d="M204.864 206.225H206.641C206.79 206.225 206.911 206.104 206.911 205.955V205.106C206.911 204.957 206.79 204.836 206.641 204.836H204.864C204.715 204.836 204.594 204.957 204.594 205.106V205.955C204.594 206.104 204.715 206.225 204.864 206.225Z" fill="#3F3D56"/>
<path d="M200.229 206.225H202.006C202.155 206.225 202.276 206.104 202.276 205.955V205.106C202.276 204.957 202.155 204.836 202.006 204.836H200.229C200.08 204.836 199.959 204.957 199.959 205.106V205.955C199.959 206.104 200.08 206.225 200.229 206.225Z" fill="#3F3D56"/>
<path d="M195.594 206.225H197.371C197.521 206.225 197.642 206.104 197.642 205.955V205.106C197.642 204.957 197.521 204.836 197.371 204.836H195.594C195.445 204.836 195.324 204.957 195.324 205.106V205.955C195.324 206.104 195.445 206.225 195.594 206.225Z" fill="#3F3D56"/>
<path d="M190.96 206.225H192.737C192.886 206.225 193.007 206.104 193.007 205.955V205.106C193.007 204.957 192.886 204.836 192.737 204.836H190.96C190.81 204.836 190.689 204.957 190.689 205.106V205.955C190.689 206.104 190.81 206.225 190.96 206.225Z" fill="#3F3D56"/>
<path d="M186.325 206.225H188.102C188.251 206.225 188.372 206.104 188.372 205.955V205.106C188.372 204.957 188.251 204.836 188.102 204.836H186.325C186.176 204.836 186.055 204.957 186.055 205.106V205.955C186.055 206.104 186.176 206.225 186.325 206.225Z" fill="#3F3D56"/>
<path d="M181.69 206.225H183.467C183.616 206.225 183.737 206.104 183.737 205.955V205.106C183.737 204.957 183.616 204.836 183.467 204.836H181.69C181.541 204.836 181.42 204.957 181.42 205.106V205.955C181.42 206.104 181.541 206.225 181.69 206.225Z" fill="#3F3D56"/>
<path d="M177.055 206.225H178.832C178.982 206.225 179.103 206.104 179.103 205.955V205.106C179.103 204.957 178.982 204.836 178.832 204.836H177.055C176.906 204.836 176.785 204.957 176.785 205.106V205.955C176.785 206.104 176.906 206.225 177.055 206.225Z" fill="#3F3D56"/>
<path d="M172.421 206.225H174.198C174.347 206.225 174.468 206.104 174.468 205.955V205.106C174.468 204.957 174.347 204.836 174.198 204.836H172.421C172.271 204.836 172.15 204.957 172.15 205.106V205.955C172.15 206.104 172.271 206.225 172.421 206.225Z" fill="#3F3D56"/>
<path d="M167.786 206.225H169.563C169.712 206.225 169.833 206.104 169.833 205.955V205.106C169.833 204.957 169.712 204.836 169.563 204.836H167.786C167.637 204.836 167.516 204.957 167.516 205.106V205.955C167.516 206.104 167.637 206.225 167.786 206.225Z" fill="#3F3D56"/>
<path d="M163.151 206.225H164.928C165.077 206.225 165.198 206.104 165.198 205.955V205.106C165.198 204.957 165.077 204.836 164.928 204.836H163.151C163.002 204.836 162.881 204.957 162.881 205.106V205.955C162.881 206.104 163.002 206.225 163.151 206.225Z" fill="#3F3D56"/>
<path d="M158.516 206.225H160.293C160.443 206.225 160.563 206.104 160.563 205.955V205.106C160.563 204.957 160.443 204.836 160.293 204.836H158.516C158.367 204.836 158.246 204.957 158.246 205.106V205.955C158.246 206.104 158.367 206.225 158.516 206.225Z" fill="#3F3D56"/>
<path d="M153.881 206.225H155.659C155.808 206.225 155.929 206.104 155.929 205.955V205.106C155.929 204.957 155.808 204.836 155.659 204.836H153.881C153.732 204.836 153.611 204.957 153.611 205.106V205.955C153.611 206.104 153.732 206.225 153.881 206.225Z" fill="#3F3D56"/>
<path d="M149.247 206.225H151.024C151.173 206.225 151.294 206.104 151.294 205.955V205.106C151.294 204.957 151.173 204.836 151.024 204.836H149.247C149.097 204.836 148.977 204.957 148.977 205.106V205.955C148.977 206.104 149.097 206.225 149.247 206.225Z" fill="#3F3D56"/>
<path d="M144.612 206.225H146.389C146.538 206.225 146.659 206.104 146.659 205.955V205.106C146.659 204.957 146.538 204.836 146.389 204.836H144.612C144.463 204.836 144.342 204.957 144.342 205.106V205.955C144.342 206.104 144.463 206.225 144.612 206.225Z" fill="#3F3D56"/>
<path d="M175.665 209.004H193.664C193.813 209.004 193.934 208.883 193.934 208.734V207.884C193.934 207.735 193.813 207.615 193.664 207.615H175.665C175.516 207.615 175.395 207.735 175.395 207.884V208.734C175.395 208.883 175.516 209.004 175.665 209.004Z" fill="#3F3D56"/>
</g>
<defs>
<clipPath id="clip0_66_595">
<rect width="461" height="350" fill="white"/>
</clipPath>
</defs>
</svg>
