<svg width="101" height="101" viewBox="0 0 101 101" fill="none" xmlns="http://www.w3.org/2000/svg">
<g clip-path="url(#clip0_75_48)">
<path d="M99.4836 62.7162C92.739 89.77 65.3378 106.234 38.2808 99.4881C11.2351 92.7435 -5.22934 65.3406 1.51826 38.289C8.25994 11.2322 35.6611 -5.23351 62.7097 1.51113C89.7648 8.25577 106.229 35.6611 99.4836 62.7162Z" fill="url(#paint0_linear_75_48)"/>
<path d="M72.7682 43.3049C73.7733 36.5845 68.6569 32.972 61.6604 30.5621L63.9301 21.4586L58.3886 20.0778L56.1791 28.9416C54.7223 28.5782 53.2262 28.2359 51.7392 27.8965L53.9647 18.9742L48.4266 17.5934L46.1557 26.6939C44.9502 26.4194 43.7661 26.1481 42.6173 25.8623L42.6237 25.8336L34.9818 23.9253L33.5077 29.844C33.5077 29.844 37.619 30.7865 37.5324 30.8445C39.7764 31.4045 40.1822 32.89 40.1148 34.0674L37.5294 44.4384C37.6839 44.4776 37.8844 44.5344 38.1055 44.6233C37.9207 44.5774 37.7239 44.5273 37.5198 44.4784L33.8959 59.0066C33.6217 59.6884 32.9256 60.7115 31.3567 60.323C31.4122 60.4035 27.329 59.3179 27.329 59.3179L24.5778 65.6612L31.7892 67.4589C33.1307 67.7953 34.4454 68.1473 35.7401 68.4783L33.4469 77.6862L38.9821 79.067L41.253 69.9569C42.7651 70.3674 44.2326 70.746 45.6692 71.103L43.4059 80.1701L48.9477 81.5509L51.2406 72.3604C60.6901 74.1487 67.7954 73.4277 70.7861 64.8806C73.196 57.9993 70.6661 54.0301 65.6948 51.4417C69.3157 50.6067 72.043 48.2252 72.7702 43.3057L72.7685 43.3044L72.7682 43.3049ZM60.1071 61.0591C58.3945 67.9405 46.8084 64.2206 43.052 63.2878L46.095 51.089C49.8511 52.0267 61.8969 53.8825 60.1073 61.0591H60.1071ZM61.8209 43.2052C60.2586 49.4645 50.6154 46.2845 47.4872 45.5047L50.2461 34.4412C53.3743 35.2209 63.4483 36.6763 61.8214 43.2052H61.8209Z" fill="white"/>
</g>
<defs>
<linearGradient id="paint0_linear_75_48" x1="0.000196802" y1="1.67211e-06" x2="101" y2="101" gradientUnits="userSpaceOnUse">
<stop offset="0.0175571" stop-color="#7F25E1"/>
<stop offset="1" stop-color="#00AEF8"/>
</linearGradient>
<clipPath id="clip0_75_48">
<rect width="101" height="101" fill="white"/>
</clipPath>
</defs>
</svg>
