<svg width="91" height="94" viewBox="0 0 91 94" fill="none" xmlns="http://www.w3.org/2000/svg">
<path d="M68.2721 0.175652C67.8983 0.313377 67.4261 0.510124 67.249 0.628174C66.6194 0.962646 49.2071 16.9978 48.8529 17.5683C48.5972 17.9422 48.4988 18.4734 48.4988 19.3981C48.4988 20.9524 49.0103 21.8575 50.2695 22.5854C51.0172 23.0183 51.2926 23.038 55.0899 23.097C58.5527 23.156 59.1626 23.1954 59.379 23.4708C59.5561 23.7266 59.6151 28.7437 59.6151 46.9627C59.6151 62.8601 59.6742 70.3169 59.8316 70.6908C60.107 71.4384 60.953 72.3238 61.7204 72.6386C62.6451 73.0321 76.0634 73.0321 76.9881 72.6386C77.7555 72.3238 78.6015 71.4384 78.8769 70.6908C79.0343 70.3169 79.0934 62.8208 79.0934 46.8644C79.0934 29.0388 79.1524 23.5495 79.3295 23.3724C79.5065 23.1954 80.687 23.1363 83.4022 23.1363C85.5271 23.1363 87.593 23.038 88.0061 22.9199C88.9309 22.6642 90.0917 21.6804 90.4262 20.8344C90.8197 19.9293 90.7606 18.7095 90.3081 17.8241C89.8556 16.9387 72.64 1.04135 71.4988 0.451103C70.5741 -0.0211029 69.1182 -0.139153 68.2721 0.175652Z" fill="url(#paint0_linear_75_52)"/>
<path d="M31.2046 38.4828C30.2012 38.7976 29.3158 39.5453 28.8239 40.529L28.332 41.5128V65.713C28.332 88.713 28.3517 89.9722 28.7059 90.7199C29.1584 91.743 30.2995 92.7267 31.2243 92.9235C32.208 93.1202 44.1507 93.1202 45.1148 92.9235C46.2756 92.6677 47.5151 91.3298 47.8103 90.0116C47.9677 89.2246 48.007 82.6531 47.9677 65.044C47.9086 39.2108 47.9677 40.8045 46.8462 39.6043C45.7247 38.3844 45.7837 38.3844 38.4646 38.3451C34.7854 38.3254 31.5194 38.3844 31.2046 38.4828Z" fill="url(#paint1_linear_75_52)"/>
<path d="M2.5971 56.0133C1.7314 56.2691 0.472199 57.5676 0.216425 58.4924C0.0786999 58.9842 0 64.3752 0 74.5865C0 89.1066 0.019675 89.9723 0.373825 90.72C0.786999 91.625 1.61335 92.4514 2.45937 92.8055C3.24637 93.1597 14.5988 93.2974 16.2515 93.0023C17.5304 92.7662 18.5535 92.0579 19.1831 90.9954C19.5766 90.3461 19.5766 89.9723 19.5766 74.4881V58.6497L19.1044 57.8234C18.5732 56.9184 17.9239 56.3675 16.9402 56.033C16.1138 55.7379 3.58085 55.7379 2.5971 56.0133Z" fill="url(#paint2_linear_75_52)"/>
<path d="M60.107 78.6985C59.1232 79.151 58.592 79.879 58.474 80.9414C58.3756 82.1022 58.7691 83.0073 59.6741 83.5385C60.2841 83.9123 60.7169 83.932 69.3542 83.932C77.9915 83.932 78.4244 83.9123 79.0343 83.5385C80.7067 82.5351 80.6673 79.997 78.9556 78.8755C78.4637 78.5411 77.7161 78.5214 69.551 78.482C62.4483 78.4427 60.5792 78.482 60.107 78.6985Z" fill="url(#paint3_linear_75_52)"/>
<path d="M59.6743 87.6703C57.9626 88.713 58.061 91.3495 59.8514 92.3332C60.4416 92.6677 61.209 92.6874 69.3544 92.6874C77.4998 92.6874 78.2672 92.6677 78.8574 92.3332C80.6478 91.3495 80.7462 88.713 79.0345 87.6703C78.4246 87.2964 77.9917 87.2768 69.3544 87.2768C60.7171 87.2768 60.2842 87.2964 59.6743 87.6703Z" fill="url(#paint4_linear_75_52)"/>
<defs>
<linearGradient id="paint0_linear_75_52" x1="44.7777" y1="-2.78207" x2="114.058" y2="38.0151" gradientUnits="userSpaceOnUse">
<stop stop-color="#7F25E1"/>
<stop offset="1" stop-color="#00AEF8"/>
</linearGradient>
<linearGradient id="paint1_linear_75_52" x1="26.5989" y1="36.2537" x2="64.935" y2="50.2653" gradientUnits="userSpaceOnUse">
<stop stop-color="#7F25E1"/>
<stop offset="1" stop-color="#00AEF8"/>
</linearGradient>
<linearGradient id="paint2_linear_75_52" x1="-1.72668" y1="54.3843" x2="31.9757" y2="72.365" gradientUnits="userSpaceOnUse">
<stop stop-color="#7F25E1"/>
<stop offset="1" stop-color="#00AEF8"/>
</linearGradient>
<linearGradient id="paint3_linear_75_52" x1="56.536" y1="78.2601" x2="59.2905" y2="89.4515" gradientUnits="userSpaceOnUse">
<stop stop-color="#7F25E1"/>
<stop offset="1" stop-color="#00AEF8"/>
</linearGradient>
<linearGradient id="paint4_linear_75_52" x1="56.5235" y1="87.0704" x2="59.227" y2="98.1662" gradientUnits="userSpaceOnUse">
<stop stop-color="#7F25E1"/>
<stop offset="1" stop-color="#00AEF8"/>
</linearGradient>
</defs>
</svg>
