<svg width="96" height="105" viewBox="0 0 96 105" fill="none" xmlns="http://www.w3.org/2000/svg">
<path d="M41.016 4.99885C40.968 7.60591 40.872 9.83028 40.8 9.90204C40.728 9.94987 39.552 10.2369 38.16 10.5239C29.376 12.3178 20.832 16.8861 14.4 23.2483C10.248 27.3622 7.65595 30.926 5.03995 36.164C-0.0960469 46.5205 -1.29605 57.8815 1.58395 69.2426C4.99195 82.6127 14.496 94.1173 27.168 100.216C43.512 108.085 62.856 106.052 77.4 94.9784C79.44 93.4476 83.544 89.4294 85.2719 87.3007C96.864 72.9977 99.24 53.3132 91.344 36.9533C88.68 31.4282 86.112 27.7688 82.0079 23.631C79.632 21.2631 74.52 17.1492 74.112 17.2688C73.872 17.3645 67.2 25.6401 67.2 25.8553C67.2 25.9271 67.92 26.4772 68.832 27.0991C75.336 31.5717 80.472 38.4123 82.872 45.803C84.336 50.2995 84.6 52.1412 84.576 57.4032C84.576 62.4499 84.24 64.6743 82.872 68.7642C79.848 77.9727 72.768 85.9852 63.984 90.1708C59.04 92.5148 54.96 93.4954 49.32 93.6868C40.392 93.9977 32.448 91.4863 25.512 86.1287C18.576 80.795 13.872 73.1891 11.976 64.3394C11.256 61.0148 11.184 54.1503 11.832 50.7779C14.472 36.7141 24.816 25.5922 38.688 21.885L40.8 21.3348L40.848 26.2141L40.92 31.0934L54.408 23.3918C61.824 19.1344 67.824 15.5945 67.728 15.4989C67.5119 15.3075 41.832 0.478348 41.4 0.334839C41.16 0.239166 41.064 1.14805 41.016 4.99885Z" fill="url(#paint0_linear_423_470)"/>
<path d="M34.9919 36.7574C34.3679 37.0923 33.8159 37.451 33.7439 37.5706C33.3599 38.1925 39.3119 48.8599 42.7199 53.6675L44.3759 55.9875L43.8959 56.9442C43.3439 58.0923 43.2959 60.221 43.7759 61.369C44.2559 62.5171 45.5759 63.9283 46.6799 64.4066C47.9519 64.9807 50.2079 64.9807 51.4799 64.4066C53.4479 63.5217 54.7679 61.5365 54.8159 59.4317L54.8399 58.188L57.5999 55.3417C59.1359 53.787 61.2479 51.3235 62.3279 49.8884L64.2959 47.2813L63.0479 46.0137C62.3759 45.344 61.7039 44.77 61.5359 44.77C60.8399 44.77 55.0079 50.1276 52.3919 53.1891C51.6959 54.0023 51.5519 54.0741 50.9999 53.8588C50.6399 53.7153 49.6799 53.6196 48.8159 53.6196C47.9759 53.6196 47.2799 53.5479 47.2799 53.4283C47.2799 52.6151 39.1199 39.3884 36.8879 36.5661C36.4559 36.0399 36.3599 36.0638 34.9919 36.7574Z" fill="url(#paint1_linear_423_470)"/>
<defs>
<linearGradient id="paint0_linear_423_470" x1="96" y1="105" x2="-9.66281e-07" y2="-1.63984e-06" gradientUnits="userSpaceOnUse">
<stop stop-color="#7F25E1"/>
<stop offset="1" stop-color="#00AEF8"/>
</linearGradient>
<linearGradient id="paint1_linear_423_470" x1="49.0111" y1="63.8372" x2="49.0111" y2="35.2008" gradientUnits="userSpaceOnUse">
<stop stop-color="#7F25E1"/>
<stop offset="1" stop-color="#00AEF8"/>
</linearGradient>
</defs>
</svg>
