<svg width="101" height="101" viewBox="0 0 101 101" fill="none" xmlns="http://www.w3.org/2000/svg">
<g clip-path="url(#clip0_75_58)">
<path d="M38.96 9.311C35.2514 10.0014 31.6611 13.5522 30.8721 17.3003C30.4578 19.2137 30.4775 26.8479 30.8721 28.5838C31.7006 32.0557 34.4031 35.0542 37.7764 36.1983C39.2361 36.6915 41.8598 36.8098 43.3393 36.435C47.2254 35.429 50.4408 32.1544 51.1115 28.5049C51.2299 27.854 51.368 27.1241 51.4074 26.8676L51.4863 26.4337H63.2236H74.9609V30.0831C74.9609 34.778 74.7439 34.5215 78.6301 34.5215C82.2992 34.5215 82.3387 34.5018 82.4176 31.9768L82.4965 30.1817H85.633H88.7695V31.8585C88.7695 33.3971 88.809 33.5944 89.2627 34.0284C89.7164 34.5018 89.8348 34.5215 92.5767 34.5215C96.6207 34.5215 96.2656 35.2514 96.2656 26.8874C96.2656 20.3184 96.2656 20.1803 95.8514 19.8055C95.4568 19.4504 94.7269 19.4307 73.4025 19.3321L51.3877 19.2335L51.2496 17.971C51.151 17.1227 50.8551 16.1758 50.3422 15.0909C48.2906 10.8102 43.5957 8.4233 38.96 9.311ZM42.2346 15.4065C43.2406 15.7221 44.3059 16.6295 44.8385 17.6159C45.233 18.3655 45.2725 18.7797 45.3316 22.37C45.3908 24.895 45.3316 26.6112 45.1738 27.203C44.6412 29.3729 42.8461 30.6946 40.6367 30.5368C39.0586 30.4184 37.9736 29.6885 37.2437 28.2288C36.6914 27.1438 36.6914 27.1438 36.6914 22.9026C36.6914 19.1151 36.7506 18.5628 37.0859 17.8526C38.1117 15.7221 40.0844 14.7753 42.2346 15.4065Z" fill="url(#paint0_linear_75_58)"/>
<path d="M63.5195 46.3772C62.5924 46.4758 59.8504 46.9098 57.4043 47.3438C45.9037 49.4151 42.4516 49.8293 31.5625 50.5C25.0133 50.9143 21.0877 51.5061 18.898 52.453C15.0711 54.0903 8.42324 61.4483 1.8543 71.2721L0 74.0535L0.433984 74.5073C0.69043 74.744 4.83301 78.7485 9.64629 83.4039L18.4246 91.8864L20.2986 90.1504C25.2697 85.5936 30.4381 81.9836 33.259 81.1157C34.5018 80.7408 35.2316 80.7014 41.7217 80.6028C48.9613 80.4844 61.9611 79.8532 64.8018 79.4783C68.8852 78.926 76.1445 75.8684 82.9107 71.8244C89.9334 67.6227 96.4432 62.7897 99.777 59.3178C100.862 58.1737 101 57.9369 101 57.2268C101 56.1221 100.605 55.2739 99.6981 54.3862C98.5145 53.2617 97.1533 52.808 94.7861 52.7883C93.0107 52.7883 92.5965 52.8475 90.7225 53.4985C88.2961 54.327 85.6922 55.6092 80.2082 58.6274C72.8107 62.7305 70.5027 63.6379 66.0051 64.2297C62.04 64.7623 54.6623 64.4073 50.3027 63.4998L49.2178 63.2631L50.3027 62.8883C50.8945 62.6713 53.4787 61.902 56.0234 61.1524C58.5682 60.4028 61.1129 59.6532 61.6455 59.4953C63.1447 59.0416 65.5711 57.503 66.952 56.1221C69.8123 53.3209 70.6606 49.4151 68.8852 47.3043C67.9186 46.1602 67.1098 46.0221 63.5195 46.3772Z" fill="url(#paint1_linear_75_58)"/>
</g>
<defs>
<linearGradient id="paint0_linear_75_58" x1="95.6762" y1="39.3818" x2="68.5641" y2="-13.6422" gradientUnits="userSpaceOnUse">
<stop stop-color="#00AEF8"/>
<stop offset="1" stop-color="#7F25E1"/>
</linearGradient>
<linearGradient id="paint1_linear_75_58" x1="100.082" y1="96.4101" x2="53.1227" y2="11.3368" gradientUnits="userSpaceOnUse">
<stop stop-color="#00AEF8"/>
<stop offset="1" stop-color="#7F25E1"/>
</linearGradient>
<clipPath id="clip0_75_58">
<rect width="101" height="101" fill="white"/>
</clipPath>
</defs>
</svg>
