<svg width="421" height="231" viewBox="0 0 421 231" fill="none" xmlns="http://www.w3.org/2000/svg">
<g clip-path="url(#clip0_89_223)">
<path d="M318.943 50.9883C318.976 49.9482 318.804 48.9117 318.435 47.9382C318.066 46.9647 317.508 46.0734 316.793 45.3151C316.079 44.5569 315.221 43.9467 314.269 43.5194C313.318 43.0922 312.291 42.8563 311.248 42.8252L289.335 42.1727L270.757 26.7041C270.681 25.8842 270.376 25.1022 269.875 24.4469C269.375 23.7917 268.701 23.2896 267.929 22.9978C267.157 22.706 266.318 22.6362 265.508 22.7964C264.698 22.9565 263.949 23.3402 263.347 23.9037C262.745 24.4672 262.314 25.188 262.102 25.9839C261.891 26.7798 261.908 27.6189 262.151 28.4058C262.394 29.1927 262.854 29.8956 263.478 30.4347C264.102 30.9738 264.866 31.3274 265.681 31.4551L285.155 53.5784L309.432 58.4916C310.564 58.7206 311.732 58.7006 312.855 58.433C313.978 58.1654 315.029 57.6566 315.935 56.9422C316.841 56.2277 317.579 55.3249 318.098 54.2965C318.618 53.2682 318.906 52.1392 318.943 50.9883Z" fill="#9E616A"/>
<path d="M289.18 56.4622L292.049 41.6519L292.143 41.5794C292.752 41.1062 293.49 40.827 294.261 40.7783C295.032 40.7295 295.799 40.9134 296.464 41.306L296.63 41.4034L315.977 41.923L318.242 43.2519L319.549 42.9338C323.5 41.9722 327.492 41.3202 329.928 43.0445C331.304 44.0184 332.084 45.6398 332.313 47.999C332.478 49.693 332.259 51.4022 331.671 53.0002C331.084 54.5982 330.144 56.0441 328.921 57.2309C327.698 58.4177 326.222 59.3151 324.604 59.8565C322.986 60.398 321.267 60.5697 319.573 60.3591L318.6 60.2275L315.414 58.944L310.485 59.5275L307.536 58.3192L289.18 56.4622Z" fill="#3F3D56"/>
<path d="M214.261 220.199C214.326 223.274 213.9 226.34 213 229.283C212.969 229.389 212.931 229.496 212.893 229.603H194.333C194.599 228.3 195.02 227.034 195.588 225.831C197.133 222.562 199.654 219.765 202.144 216.986C205.574 213.158 208.921 209.361 209.451 204.382C210.81 206.449 211.895 208.682 212.679 211.027C211.72 211.381 210.839 211.919 210.088 212.611C209.88 212.806 209.659 213.089 209.766 213.359C209.867 213.586 210.144 213.661 210.39 213.711C210.983 213.824 211.575 213.938 212.168 214.044C212.635 214.139 213.107 214.227 213.58 214.315C213.996 216.25 214.224 218.22 214.261 220.199Z" fill="#E6E6E6"/>
<path d="M229.851 218.162C226.876 219.966 224.984 222.757 223.44 225.882C222.096 226.187 220.855 226.837 219.84 227.768C219.626 227.962 219.405 228.245 219.519 228.516C219.613 228.742 219.897 228.817 220.143 228.868C220.729 228.981 221.328 229.094 221.914 229.201C221.857 229.333 221.801 229.471 221.744 229.603H202.075C202.968 228.402 203.957 227.276 205.032 226.234C205.265 226.001 205.504 225.781 205.75 225.555C208.258 223.295 211.137 221.483 214.261 220.199C219.183 218.147 224.565 217.444 229.851 218.162Z" fill="#E6E6E6"/>
<path d="M205.353 229.603H187.84C187.745 228.205 187.753 226.801 187.866 225.404C188.245 221.079 189.56 216.888 191.72 213.119C193.881 209.349 196.835 206.092 200.379 203.571C199.472 206.796 199.938 210.002 200.884 213.221C200.751 213.265 200.619 213.303 200.499 213.353C199.54 213.707 198.66 214.245 197.908 214.937C197.7 215.132 197.479 215.415 197.587 215.685C197.681 215.911 197.965 215.987 198.211 216.037C198.803 216.15 199.396 216.263 199.982 216.37C200.455 216.465 200.928 216.553 201.401 216.647C201.621 216.685 201.842 216.729 202.063 216.773C202.094 216.848 202.113 216.917 202.144 216.986C203.254 220.035 204.464 223.109 205.032 226.234C205.172 227.018 205.269 227.809 205.322 228.604C205.341 228.937 205.353 229.27 205.353 229.603Z" fill="#E6E6E6"/>
<path d="M129.331 202.432C129.519 211.317 128.289 220.176 125.688 228.677C125.597 228.986 125.487 229.294 125.378 229.603H71.7554C72.5219 225.839 73.7389 222.18 75.3801 218.705C79.8425 209.261 87.1282 201.178 94.3229 193.15C104.231 182.089 113.903 171.119 115.433 156.734C119.361 162.705 122.496 169.158 124.759 175.932C121.988 176.956 119.445 178.511 117.273 180.509C116.672 181.072 116.034 181.889 116.344 182.67C116.635 183.324 117.437 183.542 118.147 183.687C119.859 184.014 121.571 184.341 123.284 184.65C124.631 184.923 125.998 185.177 127.364 185.431C128.564 191.022 129.223 196.715 129.331 202.432Z" fill="#E6E6E6"/>
<path d="M174.375 196.547C165.777 201.76 160.313 209.824 155.851 218.851C151.967 219.733 148.382 221.611 145.45 224.3C144.831 224.863 144.194 225.68 144.521 226.461C144.795 227.115 145.614 227.333 146.325 227.478C148.019 227.805 149.749 228.132 151.443 228.441C151.279 228.822 151.115 229.222 150.951 229.603H94.1226C96.7023 226.134 99.5591 222.878 102.665 219.868C103.339 219.196 104.031 218.56 104.742 217.906C111.986 211.378 120.304 206.143 129.331 202.432C143.552 196.503 159.102 194.472 174.375 196.547Z" fill="#E6E6E6"/>
<path d="M103.594 229.603H52.9947C52.7183 225.563 52.7427 221.507 53.0676 217.47C55.0893 192.533 68.6954 168.776 89.2229 154.391C86.6 163.708 87.9478 172.971 90.68 182.271C90.2976 182.398 89.915 182.507 89.5689 182.652C86.7978 183.676 84.2546 185.231 82.0829 187.229C81.4818 187.792 80.8444 188.61 81.154 189.391C81.4271 190.044 82.2468 190.262 82.9571 190.408C84.6693 190.735 86.3814 191.062 88.0753 191.37C89.4414 191.643 90.8075 191.897 92.1735 192.17C92.811 192.279 93.4486 192.406 94.086 192.533C94.1771 192.751 94.2318 192.951 94.3228 193.15C97.5286 201.959 101.026 210.841 102.665 219.868C103.071 222.133 103.35 224.419 103.503 226.715C103.557 227.678 103.594 228.64 103.594 229.603Z" fill="#E6E6E6"/>
<path d="M323.499 202.432C323.687 211.317 322.457 220.176 319.856 228.677C319.765 228.986 319.656 229.294 319.546 229.603H265.924C266.69 225.839 267.907 222.18 269.548 218.705C274.011 209.261 281.296 201.178 288.491 193.15C298.4 182.089 308.071 171.119 309.602 156.734C313.529 162.705 316.664 169.158 318.927 175.932C316.156 176.956 313.613 178.511 311.441 180.509C310.84 181.072 310.202 181.889 310.512 182.67C310.804 183.324 311.605 183.542 312.315 183.687C314.028 184.014 315.74 184.341 317.452 184.65C318.8 184.923 320.166 185.177 321.532 185.431C322.732 191.022 323.391 196.715 323.499 202.432Z" fill="#E6E6E6"/>
<path d="M368.543 196.547C359.945 201.76 354.481 209.824 350.019 218.851C346.135 219.733 342.55 221.611 339.618 224.3C338.999 224.863 338.362 225.68 338.689 226.461C338.963 227.115 339.782 227.333 340.493 227.478C342.186 227.805 343.917 228.132 345.611 228.441C345.447 228.822 345.283 229.222 345.119 229.603H288.291C290.87 226.134 293.727 222.878 296.833 219.868C297.507 219.196 298.199 218.56 298.909 217.906C306.154 211.378 314.472 206.143 323.499 202.432C337.719 196.503 353.27 194.472 368.543 196.547Z" fill="#E6E6E6"/>
<path d="M297.762 229.603H247.163C246.887 225.563 246.911 221.507 247.236 217.47C249.258 192.533 262.864 168.776 283.391 154.391C280.768 163.708 282.116 172.971 284.848 182.271C284.466 182.398 284.083 182.507 283.737 182.652C280.966 183.676 278.423 185.231 276.251 187.229C275.65 187.792 275.013 188.61 275.322 189.391C275.595 190.044 276.415 190.262 277.125 190.408C278.837 190.735 280.55 191.062 282.244 191.37C283.61 191.643 284.976 191.897 286.342 192.17C286.979 192.279 287.617 192.406 288.254 192.533C288.345 192.751 288.4 192.951 288.491 193.15C291.697 201.959 295.194 210.841 296.833 219.868C297.239 222.133 297.519 224.419 297.671 226.715C297.726 227.678 297.762 228.64 297.762 229.603Z" fill="#E6E6E6"/>
<path d="M211.669 55.4712C211.665 65.136 208.17 74.476 201.824 81.7814C195.478 89.0868 186.707 93.8689 177.114 95.2524C167.522 96.6359 157.751 94.5282 149.589 89.3151C141.428 84.102 135.422 76.1323 132.671 66.8648C129.921 57.5973 130.609 47.652 134.611 38.8494C138.613 30.0468 145.66 22.9756 154.462 18.9304C163.265 14.8852 173.234 14.1365 182.544 16.8214C191.855 19.5062 199.885 25.445 205.163 33.5507C204.557 34.0873 203.988 34.6649 203.461 35.2794C203.323 35.4366 203.184 35.6063 203.051 35.7698C202.856 36.0086 202.673 36.2475 202.497 36.4927C202.289 36.7756 202.093 37.0647 201.904 37.3602C200.969 38.8081 200.256 40.3865 199.786 42.0436C201.011 40.5781 202.449 39.3045 204.054 38.2655C204.087 38.2429 204.123 38.2239 204.161 38.2088C204.319 38.1083 204.476 38.0077 204.64 37.9071C205.341 37.4813 206.067 37.0992 206.815 36.763C206.878 36.7379 206.941 36.7064 207.004 36.6813C210.079 42.469 211.681 48.9214 211.669 55.4712Z" fill="#F9A826"/>
<path d="M190.141 229.628C189.302 228.937 188.483 228.226 187.682 227.485C181.289 221.492 176.266 214.195 172.955 206.092C170.246 199.556 168.66 192.61 168.265 185.548C168.171 183.876 168.152 182.21 168.196 180.544C168.31 176.199 168.913 171.881 169.992 167.67C171.26 162.779 173.163 158.083 175.156 153.444C176.139 151.149 177.16 148.849 178.144 146.529C181.144 139.476 183.843 132.253 184.259 124.552C184.773 114.63 181.865 104.831 176.019 96.7851C175.307 95.8044 176.946 94.8615 177.652 95.8358C178.377 96.8228 179.058 97.8412 179.695 98.8911C184.807 107.339 187.002 117.225 185.942 127.035C185.179 133.717 182.91 139.997 180.325 146.158C178.995 149.352 177.576 152.507 176.24 155.682C175.836 156.637 175.439 157.593 175.055 158.561C173.555 162.193 172.343 165.936 171.43 169.757C170.48 173.982 170.021 178.302 170.062 182.632C170.074 183.776 170.112 184.913 170.188 186.051C170.686 193.586 172.575 200.964 175.761 207.815C179.408 215.723 184.78 222.72 191.483 228.296C192.423 229.069 191.074 230.395 190.141 229.628Z" fill="#3F3D56"/>
<path d="M188.59 56.9045C186.005 54.0631 181.542 54.1008 177.973 54.1699C177.047 54.1888 176.114 54.2391 175.187 54.3082C175.559 54.151 175.931 54.0002 176.296 53.843C178.16 53.0637 179.969 52.1606 181.712 51.1399C182.941 50.3855 184.29 49.4866 185.015 48.2042C187.304 44.1746 186.856 38.2215 183.017 35.3046C180.369 33.2866 177.059 33.1169 173.769 33.4878C173.775 33.3663 173.758 33.2446 173.718 33.1295C172.429 29.4048 171.994 25.4394 172.445 21.5249C172.444 21.275 172.344 21.0356 172.167 20.8589C171.99 20.6822 171.75 20.5827 171.499 20.5819C171.25 20.5869 171.012 20.6879 170.836 20.8636C170.66 21.0394 170.558 21.2764 170.553 21.5249C170.092 25.6096 170.549 29.7456 171.89 33.6324C171.909 33.6764 171.928 33.7079 171.947 33.7456C170.352 34.0096 168.794 34.349 167.351 34.6131C165.441 34.9651 163.533 35.3172 161.627 35.6692C160.7 31.4699 159.721 27.2832 158.689 23.109C158.399 21.9335 156.571 22.4301 156.867 23.612C157.895 27.7358 158.863 31.8701 159.773 36.0149C154.843 36.9202 149.916 37.8296 144.99 38.7432C143.792 38.9632 144.303 40.78 145.494 40.56C150.386 39.661 155.278 38.7579 160.17 37.8505C162.856 50.2724 165.035 62.7885 166.708 75.3989C166.821 76.2664 166.922 77.1339 167.029 78.0077C162.33 78.7522 157.577 79.1055 152.82 79.0639C151.597 79.0513 151.597 80.9372 152.82 80.9498C157.656 80.9909 162.486 80.6313 167.263 79.8748C167.685 83.3448 168.082 86.8212 168.429 90.3039C168.549 91.4983 170.44 91.5108 170.32 90.3039C169.967 86.7206 169.557 83.1374 169.116 79.5605C170.679 79.2839 172.237 78.9633 173.775 78.5987C175.89 78.1229 177.979 77.5396 180.035 76.8511C180.911 80.9309 181.789 85.0108 182.67 89.0906C182.928 90.2724 184.75 89.7695 184.498 88.5877C183.603 84.4513 182.71 80.3149 181.819 76.1785C184.498 75.0595 186.976 73.557 188.81 71.3568C190.522 69.324 191.442 66.744 191.402 64.0896C191.361 61.4353 190.363 58.8844 188.59 56.9045ZM162.087 37.7311C162.068 37.6557 162.049 37.5802 162.036 37.5048C162.698 37.3854 163.36 37.2596 164.022 37.1402C166.922 36.6058 169.816 36.0024 172.728 35.5561C175.092 35.1977 177.627 34.9966 179.928 35.7698C184.492 37.3036 185.431 42.7979 183.622 46.7772C183.08 47.9653 182.033 48.7197 180.899 49.4237C179.318 50.369 177.675 51.207 175.981 51.932C173.995 52.8183 171.978 53.623 169.967 54.4591C168.731 54.9745 167.458 55.4837 166.267 56.1124C166.074 56.2029 165.887 56.3037 165.705 56.4141C164.621 50.1655 163.415 43.9378 162.087 37.7311ZM187.865 69.5212C184.902 73.6827 179.285 75.2606 174.588 76.4551C172.703 76.9391 170.806 77.3477 168.889 77.6934C168.07 71.2059 167.116 64.7415 166.027 58.3001C166.177 58.2878 166.322 58.2404 166.449 58.1617C166.645 58.0423 166.84 57.9417 167.042 57.8349C168.088 57.3763 169.187 57.049 170.314 56.8605C172.214 56.4762 174.14 56.2324 176.076 56.1313C178.056 55.9961 180.044 56.015 182.021 56.1879C183.389 56.3199 184.908 56.5336 186.074 57.1937C187.783 58.1555 189.025 60.6826 189.409 62.7068C189.627 63.8878 189.602 65.1005 189.337 66.2717C189.071 67.4429 188.57 68.5483 187.865 69.5212H187.865Z" fill="#2F2E41"/>
<path d="M176.234 212.184C175.206 211.901 174.189 211.589 173.182 211.247C164.974 208.409 157.468 203.854 151.168 197.889C144.871 191.975 139.858 184.835 136.442 176.911C134.734 172.941 133.476 168.794 132.691 164.546C132.265 162.132 131.964 159.698 131.789 157.254C131.569 154.28 131.493 151.288 131.455 148.308C131.373 141.556 131.48 134.654 130.453 127.965C129.906 124.088 128.853 120.299 127.32 116.694C123.619 108.218 117.309 101.137 109.302 96.477C108.25 95.8673 109.202 94.2391 110.254 94.8489C111.231 95.4146 112.19 96.0119 113.123 96.6531C120.717 101.876 126.542 109.274 129.829 117.87C130.995 120.999 131.827 124.241 132.313 127.544C133.454 134.906 133.239 142.499 133.372 149.924C133.416 152.451 133.504 154.984 133.706 157.511C133.898 160.232 134.271 162.937 134.822 165.608C135.708 169.784 137.064 173.848 138.863 177.722C142.515 185.531 147.766 192.493 154.276 198.159C160.761 203.839 168.431 208.009 176.732 210.367C177.904 210.694 177.406 212.517 176.234 212.184Z" fill="#3F3D56"/>
<path d="M104.492 97.3383C98.6241 99.9329 92.2199 101.094 85.8116 100.725C79.4032 100.356 73.1756 98.4673 67.6461 95.2163C62.1166 91.9653 57.4448 87.4456 54.0188 82.0326C50.5927 76.6197 48.5113 70.4697 47.9474 64.0935C47.3835 57.7174 48.3534 51.2991 50.7765 45.3717C53.1996 39.4444 57.0061 34.1791 61.8796 30.0133C66.7532 25.8475 72.5532 22.9013 78.7979 21.4195C85.0426 19.9377 91.5517 19.9631 97.7845 21.4935C97.6017 21.745 97.4252 22.009 97.255 22.273C96.3203 23.7209 95.6064 25.2993 95.1368 26.9564C96.3616 25.4909 97.8003 24.2173 99.4047 23.1783C99.4384 23.1557 99.4743 23.1367 99.5119 23.1216C99.6695 23.0211 99.8271 22.9205 99.991 22.8199C100.256 22.6565 100.521 22.5056 100.792 22.361C106.526 24.2468 111.763 27.3918 116.117 31.5642C115.511 31.9793 114.931 32.4329 114.383 32.9221C113.777 33.4587 113.208 34.0364 112.681 34.6509C112.543 34.808 112.404 34.9777 112.272 35.1412C112.076 35.3801 111.893 35.6189 111.717 35.8641C111.698 35.8955 111.673 35.9207 111.654 35.9521C111.471 36.2036 111.294 36.4676 111.124 36.7316C110.189 38.1795 109.476 39.7579 109.006 41.415C110.231 39.9496 111.669 38.676 113.274 37.6369C113.308 37.6143 113.343 37.5953 113.381 37.5803C113.539 37.4797 113.696 37.3791 113.86 37.2786C114.125 37.1151 114.39 36.9642 114.661 36.8196C115.108 36.5745 115.569 36.3481 116.035 36.1344C116.098 36.1093 116.161 36.0778 116.224 36.0527C117.221 35.6178 118.252 35.2666 119.307 35.0029C123.252 39.7956 126.034 45.4323 127.435 51.4735C128.837 57.5146 128.82 63.7968 127.386 69.8303C125.952 75.8639 123.14 81.4856 119.169 86.257C115.198 91.0285 110.175 94.8209 104.492 97.3383L104.492 97.3383Z" fill="#F9A826"/>
<path d="M113.64 85.5074C111.143 82.0876 108.645 78.6678 106.144 75.248C108.142 73.1421 109.794 70.7659 110.582 68.0125C111.32 65.4617 111.111 62.7312 109.993 60.3216C108.876 57.912 106.925 55.9846 104.498 54.8928C100.981 53.3401 96.9209 55.1757 93.6868 56.6845C92.8421 57.0742 92.0163 57.4954 91.1967 57.9355C91.4678 57.6463 91.7515 57.3571 92.0226 57.0616C93.4068 55.5936 94.6915 54.0354 95.8681 52.3972C96.6876 51.2153 97.5576 49.8449 97.6963 48.3802C98.1502 43.7786 95.3196 38.5169 90.623 37.3979C87.389 36.6247 84.2874 37.8003 81.4316 39.4787C81.3889 39.3649 81.3247 39.2604 81.2424 39.1707C78.5483 36.2872 76.5382 32.8369 75.3607 29.0748C75.2581 28.847 75.0692 28.6688 74.8353 28.5793C74.6015 28.4898 74.3416 28.4962 74.1124 28.5971C73.8866 28.7024 73.7106 28.891 73.6212 29.1231C73.5319 29.3552 73.5362 29.6128 73.6333 29.8417C74.8695 33.7613 76.9673 37.3565 79.7736 40.3651C79.8056 40.3942 79.8393 40.4215 79.8744 40.4468C78.5253 41.3332 77.233 42.2699 76.0226 43.0997C74.4213 44.1935 72.82 45.2873 71.2188 46.3811C68.6656 42.9173 66.0704 39.485 63.4332 36.0841C62.683 35.1286 61.2204 36.323 61.9706 37.2785C64.5805 40.6354 67.1463 44.0237 69.668 47.4435C65.5324 50.2661 61.3969 53.0887 57.2614 55.9113C56.259 56.5964 57.4568 58.0549 58.4592 57.376C62.5632 54.5723 66.6693 51.7685 70.7775 48.9648C78.2794 59.2304 85.359 69.7894 92.0162 80.6417C92.4764 81.3898 92.9177 82.1442 93.3716 82.8923C89.3795 85.4771 85.1767 87.723 80.8074 89.6061C79.6916 90.0902 80.4544 91.8126 81.5765 91.3286C86.0142 89.4121 90.2843 87.1306 94.3425 84.5079C96.1392 87.5127 97.9169 90.5302 99.6506 93.5728C100.243 94.6163 101.983 93.862 101.378 92.8059C99.5938 89.6752 97.7719 86.5656 95.9122 83.4769C97.2235 82.5905 98.5138 81.6685 99.783 80.7109C101.52 79.4208 103.19 78.0445 104.788 76.587C107.253 79.9566 109.716 83.3281 112.177 86.7018C112.889 87.6825 114.352 86.488 113.64 85.5074ZM83.3795 63.6937C79.8492 58.4132 76.2159 53.2081 72.4797 48.0785C72.4355 48.0156 72.3851 47.9527 72.341 47.8962C72.8957 47.5127 73.4505 47.1355 74.0116 46.752C76.4387 45.0924 78.8406 43.3763 81.3244 41.7858C83.3354 40.5034 85.5734 39.2964 87.9879 39.0764C92.7854 38.6301 95.8807 43.2694 95.8429 47.6384C95.8303 48.9523 95.1809 50.0587 94.4308 51.1588C93.3712 52.6641 92.2085 54.0946 90.9509 55.4398C89.4946 57.0553 87.9816 58.6081 86.4875 60.186C85.5608 61.1541 84.6089 62.1347 83.7704 63.1908C83.6317 63.3543 83.5056 63.5177 83.3795 63.6937ZM99.6506 78.4227C98.125 79.6234 96.549 80.7675 94.9477 81.855C91.5623 76.2602 88.0614 70.7366 84.445 65.2842C84.5771 65.2143 84.6897 65.1128 84.7728 64.9888C84.9051 64.8064 85.0439 64.6304 85.1825 64.4544C85.9518 63.6134 86.822 62.8702 87.7735 62.2416C89.3554 61.1216 91.0179 60.1194 92.7475 59.243C94.5048 58.3222 96.3299 57.5362 98.207 56.892C99.5119 56.4582 100.987 56.0433 102.317 56.169C104.272 56.3576 106.434 58.1681 107.613 59.8654C108.29 60.8573 108.76 61.9757 108.993 63.1533C109.226 64.3309 109.217 65.5433 108.968 66.7175C107.947 71.7214 103.458 75.4304 99.6506 78.4227Z" fill="#2F2E41"/>
<path d="M220.592 56.2862C217.914 65.5746 218.679 75.5143 222.749 84.2858C226.819 93.0573 233.921 100.074 242.754 104.051C251.588 108.028 261.562 108.7 270.852 105.943C280.142 103.186 288.125 97.1858 293.34 89.0396C298.556 80.8934 300.655 71.1466 299.253 61.5834C297.852 52.0202 293.043 43.2803 285.707 36.9635C278.372 30.6467 269 27.1756 259.308 27.1856C249.615 27.1956 240.251 30.686 232.929 37.0179C233.362 37.701 233.749 38.413 234.084 39.149C234.174 39.3383 234.26 39.5396 234.342 39.7332C234.463 40.0167 234.573 40.2967 234.674 40.581C234.796 40.9103 234.903 41.2421 235.003 41.5782C235.499 43.2276 235.747 44.9413 235.738 46.6632C234.968 44.917 233.939 43.2961 232.686 41.8547C232.66 41.8238 232.631 41.7956 232.599 41.7708C232.475 41.6306 232.352 41.4905 232.222 41.3486C231.667 40.746 231.075 40.1784 230.45 39.6488C230.396 39.6073 230.344 39.5597 230.291 39.5181C225.729 44.2309 222.399 49.989 220.592 56.2862Z" fill="#F9A826"/>
<path d="M243.398 105.812C242.484 106.516 241.599 107.258 240.744 108.038C233.885 114.319 229.222 122.624 227.436 131.737C227.31 132.391 227.203 133.051 227.108 133.711C225.646 143.882 227.852 154.205 228.93 164.313C228.968 164.659 229.006 164.998 229.037 165.344C229.578 170.085 229.644 174.867 229.233 179.62C228.798 183.915 227.896 188.15 226.541 192.25C223.809 200.428 219.443 207.968 213.705 214.415C207.974 220.91 200.892 226.082 192.952 229.572C191.849 230.049 190.884 228.421 192 227.944C192.99 227.51 193.973 227.057 194.938 226.573C202.62 222.657 209.353 217.118 214.67 210.342C219.995 203.619 223.835 195.848 225.936 187.541C226.999 183.336 227.564 179.022 227.619 174.686C227.638 171.749 227.499 168.813 227.203 165.891C226.963 163.339 226.635 160.786 226.308 158.24C225.267 150.257 224.221 142.147 225.179 134.183C225.473 131.686 225.988 129.221 226.717 126.815C229.421 117.982 234.774 110.187 242.055 104.48C243.007 103.738 244.356 105.064 243.398 105.812Z" fill="#3F3D56"/>
<path d="M281.898 57.64C280.75 55.0186 278.783 52.8938 276.52 51.0771C278.525 47.3492 280.532 43.6214 282.541 39.8936C283.108 38.8249 281.5 37.8442 280.92 38.9066C278.947 42.5842 276.972 46.2617 274.995 49.9392C273.211 48.7104 271.366 47.5732 269.466 46.532C268.085 45.7588 266.679 45.017 265.255 44.3255C266.673 41.0063 268.06 37.6745 269.39 34.3302C269.844 33.2049 268.022 32.6957 267.575 33.8084C266.276 37.0585 264.927 40.2897 263.559 43.5083C259.18 41.4633 254.638 39.7854 249.98 38.4918C248.801 38.1649 248.278 39.9754 249.456 40.3023C254.038 41.5759 258.507 43.2265 262.815 45.237C262.475 46.048 262.134 46.8526 261.781 47.6573C256.694 59.3059 251.127 70.7324 245.081 81.9368C240.631 79.7114 236.18 77.4923 231.729 75.2795C230.645 74.7389 229.649 76.3419 230.739 76.8888C235.222 79.1205 239.704 81.3542 244.186 83.5901C242.156 87.3242 240.078 91.0289 237.951 94.7043C237.34 95.7604 238.96 96.7411 239.565 95.6913C241.721 91.9635 243.814 88.2105 245.876 84.4324L251.083 87.0287C252.394 87.6762 253.794 88.4369 255.256 89.1283C255.225 89.1598 255.199 89.1849 255.168 89.2226C252.803 92.5889 251.216 96.4363 250.522 100.488C250.46 100.728 250.493 100.983 250.614 101.201C250.735 101.418 250.934 101.581 251.171 101.657C251.413 101.723 251.671 101.693 251.89 101.572C252.109 101.451 252.272 101.249 252.344 101.01C252.994 97.1227 254.513 93.4316 256.788 90.2096C256.859 90.1096 256.908 89.9962 256.933 89.8764C259.997 91.1463 263.218 91.8943 266.326 90.6873C270.828 88.946 272.908 83.3449 271.83 78.8439C271.489 77.4106 270.437 76.1722 269.466 75.1098C268.076 73.6475 266.589 72.2803 265.015 71.0174C264.706 70.7659 264.391 70.5145 264.076 70.263C264.946 70.5836 265.828 70.8916 266.717 71.1682C270.128 72.2181 274.402 73.4879 277.674 71.47C279.928 70.0567 281.596 67.8805 282.372 65.3404C283.148 62.8002 282.979 60.0664 281.898 57.64ZM264.183 72.765C265.608 73.9316 266.954 75.1917 268.211 76.5368C269.106 77.5237 269.901 78.5358 270.09 79.8308C270.727 84.1495 268.3 89.1723 263.489 89.3861C261.062 89.4929 258.679 88.6003 256.511 87.607C253.831 86.3749 251.222 84.9919 248.58 83.6781C247.981 83.3826 247.376 83.0808 246.777 82.7791C246.81 82.7095 246.848 82.6422 246.891 82.5779C249.891 76.9831 252.779 71.3316 255.553 65.6236C255.696 65.7802 255.847 65.9292 256.006 66.07C256.977 67.0004 258.062 67.8427 259.102 68.6788C260.804 70.0367 262.519 71.3694 264.183 72.765ZM280.076 66.1203C279.143 67.9559 277.251 70.0429 275.341 70.4955C274.036 70.8099 272.517 70.5961 271.168 70.3447C269.219 69.9659 267.303 69.4341 265.437 68.7543C263.605 68.1245 261.823 67.3596 260.104 66.466C259.073 65.9731 258.107 65.3544 257.229 64.6241C257.066 64.467 256.908 64.3161 256.75 64.1464C256.648 64.0388 256.523 63.9551 256.385 63.9012C259.222 58.0109 261.932 52.0619 264.517 46.0542C266.263 46.9155 267.974 47.8354 269.649 48.8139C273.828 51.2593 278.79 54.3271 280.485 59.1424C280.893 60.2728 281.067 61.4739 280.997 62.6732C280.926 63.8725 280.613 65.0451 280.076 66.1203V66.1203Z" fill="#2F2E41"/>
<path d="M177.139 128.898C174.829 123.343 170.501 118.665 166.69 113.863C162.056 108.012 152.518 110.711 151.895 118.136C156.172 119.538 156.727 125.698 151.835 126.541C153.084 139.982 161.685 152.375 173.641 158.605L179.554 147.587C180.353 141.314 179.164 133.766 177.139 128.898Z" fill="#3F3D56"/>
<path d="M179.551 147.613C179.616 147.483 179.682 147.353 179.749 147.224L179.554 147.587L179.551 147.613Z" fill="#2F2E41"/>
<path d="M221.898 176.045C219.589 170.491 215.261 165.812 211.449 161.01C206.815 155.159 197.278 157.859 196.654 165.284C200.931 166.686 201.486 172.846 196.594 173.689C197.843 187.129 206.444 199.523 218.4 205.752L224.313 194.735C225.113 188.462 223.924 180.914 221.898 176.045Z" fill="#3F3D56"/>
<path d="M236.861 161.471C241.572 165.224 247.628 167.238 253.29 169.609C260.181 172.503 267.227 165.548 264.179 158.745C259.755 159.576 256.286 154.448 260.162 151.355C252.562 140.186 239.03 133.471 225.544 133.771L225.699 146.266C228.035 152.144 232.731 158.183 236.861 161.471Z" fill="#3F3D56"/>
<path d="M122.181 162.1C117.469 165.853 111.414 167.867 105.752 170.238C98.8609 173.131 91.8148 166.176 94.863 159.374C99.2873 160.205 102.755 155.077 98.8794 151.984C106.479 140.814 120.011 134.1 133.498 134.4L133.343 146.895C131.006 152.773 126.311 158.811 122.181 162.1Z" fill="#3F3D56"/>
<path d="M224.31 194.761C224.376 194.631 224.442 194.501 224.508 194.371L224.313 194.735L224.31 194.761Z" fill="#2F2E41"/>
<path d="M301.188 80.6167L299.927 85.0172L300.558 103.247L327.035 95.075L329.694 77.6043L301.188 80.6167Z" fill="#9E616A"/>
<path d="M282.017 217.767L275.462 216.496L277.261 190.681L286.934 192.557L282.017 217.767Z" fill="#9E616A"/>
<path d="M284.866 214.971L282.669 214.411L275.727 212.629L274.627 212.345L273.763 216.776L262.588 221.647C262.036 221.887 261.575 222.297 261.273 222.817C260.971 223.337 260.843 223.939 260.909 224.537C260.974 225.134 261.23 225.694 261.638 226.137C262.046 226.579 262.586 226.879 263.177 226.994L275.516 229.386L278.493 225.417L278.474 229.96L283.122 230.861L284.866 214.971Z" fill="#2F2E41"/>
<path d="M366.338 213.347L359.909 215.145L349.892 191.274L359.38 188.619L366.338 213.347Z" fill="#9E616A"/>
<path d="M367.625 209.573L365.41 210.056L358.405 211.572L357.294 211.811L358.517 216.157L350.726 225.513C350.34 225.975 350.113 226.547 350.077 227.147C350.041 227.747 350.198 228.342 350.526 228.847C350.854 229.351 351.335 229.737 351.898 229.95C352.462 230.162 353.079 230.189 353.659 230.026L365.762 226.639L366.635 221.759L368.663 225.827L373.222 224.552L367.625 209.573Z" fill="#2F2E41"/>
<path d="M299.297 99.4757L329.205 90.2943C329.205 90.2943 328.296 93.1893 332.056 99.418C335.984 105.924 338.211 113.518 338.296 119.498C338.481 132.434 340.218 145.301 344.104 157.644L344.441 158.715C344.441 158.715 353.499 166.084 357.295 181.827L365.104 200.943L355.404 203.829L330.001 165.661L327.587 163.712C325.831 162.294 324.4 160.517 323.392 158.5C322.384 156.483 321.822 154.274 321.744 152.022L314.114 139.418L308.442 150.514L299.271 163.522L293.674 182.681C291.987 191.606 290.588 199.961 284.798 206.972L274.324 205.576L281.645 161.711L288.208 142.648L293.129 128.353L296.145 119.592L299.297 99.4757Z" fill="#2F2E41"/>
<path d="M297.466 90.2985C297.066 92.8111 297.714 95.1357 297.389 98.1035C297.336 98.5952 296.077 99.746 296.039 100.234C295.947 101.399 296.871 101.88 296.9 102.984C296.922 103.846 296.02 105.349 296.142 106.142C297.437 114.496 304.976 118.205 332.631 100.544C332.631 100.544 335.078 99.0797 333.389 96.079C332.939 95.2789 334.907 94.3475 335.078 93.2228C335.208 92.3681 334.134 91.2569 334.273 90.2943C334.437 89.1582 334.606 87.9525 334.775 86.6904C336.98 70.2206 339.274 44.1359 332.865 37.6021L329.246 30.9544L315.688 33.2553L315.64 38.9584L306 48.9842C306 48.9842 296.659 58.5797 299.837 67.8428C302.142 76.7468 301.285 80.7398 297.466 90.2985Z" fill="#3F3D56"/>
<path d="M325.143 51.9216C324.142 51.6285 323.093 51.5352 322.055 51.647C321.017 51.7588 320.012 52.0736 319.097 52.5734C318.181 53.0731 317.374 53.748 316.72 54.5594C316.067 55.3707 315.58 56.3026 315.288 57.3018L309.157 78.2896L289.48 92.3414C288.665 92.2093 287.829 92.3081 287.067 92.6264C286.306 92.9447 285.649 93.4698 285.172 94.1419C284.695 94.814 284.417 95.6061 284.369 96.4281C284.321 97.2502 284.506 98.069 284.902 98.7916C285.298 99.5141 285.889 100.111 286.609 100.515C287.329 100.919 288.147 101.113 288.972 101.076C289.797 101.039 290.595 100.771 291.275 100.304C291.955 99.8367 292.49 99.1885 292.818 98.4332L319.18 85.1864L330.041 62.9848C330.547 61.9499 330.821 60.8173 330.843 59.666C330.865 58.5147 330.635 57.3726 330.168 56.3192C329.702 55.2658 329.011 54.3265 328.143 53.567C327.275 52.8075 326.251 52.2459 325.143 51.9216Z" fill="#9E616A"/>
<path d="M322.99 82.0243L309.333 75.5391L309.286 75.4304C308.979 74.7237 308.894 73.9412 309.04 73.1851C309.186 72.4289 309.557 71.7342 310.104 71.1914L310.241 71.0552L315.599 52.5104L317.458 50.6577L317.477 49.3163C317.535 45.2609 317.903 41.2435 320.188 39.3254C321.479 38.2412 323.249 37.8953 325.596 38.2657C327.282 38.5317 328.886 39.1723 330.29 40.1401C331.694 41.1078 332.862 42.378 333.707 43.8566C334.552 45.3352 335.053 46.9843 335.173 48.6821C335.293 50.3798 335.028 52.0826 334.398 53.6645L334.027 54.5707L331.981 57.3246L331.311 62.2285L329.398 64.7719L322.99 82.0243Z" fill="#3F3D56"/>
<path d="M304.654 32.994L307.551 32.741C307.219 31.6016 307.013 30.4295 306.936 29.2455C307.6 30.5208 308.517 31.6477 309.633 32.5576L326.249 31.0952L336.359 10.7507C333.952 2.86728 327.719 -1.7729 319.855 0.639437C319.381 0.784845 318.897 0.958271 318.414 1.15625C313.946 1.75047 309.884 4.05014 307.082 7.57112C304.281 11.0921 302.958 15.5597 303.394 20.0333C299.508 27.2161 302.522 29.8137 304.654 32.994Z" fill="#2F2E41"/>
<path d="M316.094 29.5329C322.401 29.5329 327.513 24.4348 327.513 18.146C327.513 11.8572 322.401 6.75912 316.094 6.75912C309.787 6.75912 304.675 11.8572 304.675 18.146C304.675 24.4348 309.787 29.5329 316.094 29.5329Z" fill="#9E616A"/>
<path d="M300.797 15.0008C302.021 15.8661 305.34 15.9452 309.164 15.6572C309.136 15.585 309.113 15.5109 309.09 15.4369C308.758 14.2975 308.552 13.1254 308.475 11.9414C309.139 13.2167 310.056 14.3437 311.172 15.2535C311.255 15.3214 311.339 15.3893 311.428 15.4555C314.681 15.1184 318.069 14.5903 320.707 14.124C320.896 20.9361 315.785 28.1395 317.687 31.7328L338.55 29.7096C337.94 28.161 337.575 26.5273 337.469 24.867C338.474 26.7931 340.046 28.3666 341.973 29.3765L343.746 29.2067L343.49 26.611C344.614 14.9762 335.354 6.25853 323.835 3.81359C321.273 1.73024 317.988 0.743066 314.698 1.06786L312.093 1.31825C310.451 1.47699 308.855 1.95683 307.399 2.73036C305.942 3.5039 304.652 4.55598 303.603 5.82653C302.554 7.09708 301.767 8.56123 301.285 10.1354C300.804 11.7095 300.638 13.3628 300.797 15.0008Z" fill="#2F2E41"/>
<path d="M318.448 1.72982C321.06 2.19156 323.427 3.55174 325.138 5.57379C326.849 7.59584 327.794 10.1518 327.811 12.7972C327.817 12.987 327.898 13.1668 328.035 13.2988C328.172 13.4307 328.355 13.5044 328.545 13.5044C328.735 13.5044 328.918 13.4307 329.055 13.2988C329.192 13.1668 329.273 12.987 329.279 12.7972C329.263 9.8318 328.212 6.96453 326.307 4.68746C324.402 2.41039 321.761 0.865494 318.838 0.317894C317.914 0.151947 317.518 1.56278 318.448 1.72982H318.448Z" fill="#FD6584"/>
<path d="M420.417 230.85L0.582816 231C0.428542 231 0.280743 230.938 0.171813 230.829C0.0628829 230.72 0.00170898 230.573 0.00170898 230.419C0.00170898 230.265 0.0628829 230.117 0.171813 230.009C0.280743 229.9 0.428542 229.838 0.582816 229.838L420.417 229.688C420.572 229.688 420.72 229.749 420.829 229.858C420.939 229.967 421 230.115 421 230.269C421 230.423 420.939 230.571 420.829 230.68C420.72 230.789 420.572 230.85 420.417 230.85Z" fill="#CACACA"/>
</g>
<defs>
<clipPath id="clip0_89_223">
<rect width="421" height="231" fill="white"/>
</clipPath>
</defs>
</svg>
